<?xml version="1.0" encoding="UTF-8"?>
<svg version="1.1" xmlns="http://www.w3.org/2000/svg" width="2106" height="2515">
<path d="M0 0 C0.74364807 -0.00067474 1.48729614 -0.00134949 2.253479 -0.00204468 C13.52968459 0.01422888 24.26296539 0.59849711 35.25 3.25 C36.37970215 3.49943359 36.37970215 3.49943359 37.53222656 3.75390625 C49.82138533 6.47475321 60.97415998 10.69299458 72.25 16.25 C72.91515625 16.57371582 73.5803125 16.89743164 74.265625 17.23095703 C101.41697544 30.58263361 125.80367475 52.66960353 143.25 77.25 C143.77480957 77.97928711 144.29961914 78.70857422 144.84033203 79.45996094 C159.26287201 99.67894093 170.98282449 121.81622188 179.25 145.25 C179.5495459 146.09240234 179.8490918 146.93480469 180.15771484 147.80273438 C185.4689891 162.98103758 189.23300006 178.46436997 192.25 194.25 C192.52118652 195.6421875 192.52118652 195.6421875 192.79785156 197.0625 C197.99620668 225.17288951 197.98558538 258.23662398 192.25 286.25 C192.04600586 287.27996094 191.84201172 288.30992187 191.63183594 289.37109375 C184.71968476 323.53945676 171.60647408 356.4651558 150.25 384.25 C149.56164063 385.14976562 148.87328125 386.04953125 148.1640625 386.9765625 C135.62768781 402.98149935 121.50600953 418.3239617 104.25 429.25 C103.68458496 429.61174316 103.11916992 429.97348633 102.53662109 430.34619141 C75.82224292 447.18836139 42.00569401 451.65390873 10.9375 451.3125 C9.93307861 451.3014624 8.92865723 451.2904248 7.89379883 451.27905273 C7.02134521 451.26946533 6.1488916 451.25987793 5.25 451.25 C-3.18490739 537.16004264 -7.91884495 623.56282608 -12.53027344 709.75319672 C-12.684239 712.62664028 -12.83969287 715.5000003 -12.99536133 718.37335205 C-14.3055228 742.65963259 -15.22522273 766.9338739 -15.75 791.25 C-4.88317835 797.6847127 5.92951033 803.71926123 17.5 808.8125 C31.77376571 815.142446 44.35208864 823.1329862 56.25 833.25 C57.29596173 834.11308713 58.34289995 834.97499176 59.390625 835.8359375 C69.13461972 843.8931974 78.13990623 852.53038859 86.25 862.25 C86.70745605 862.79366211 87.16491211 863.33732422 87.63623047 863.89746094 C95.7936565 873.62253369 103.33385214 883.60527885 110.25 894.25 C110.90234619 895.24942627 110.90234619 895.24942627 111.56787109 896.26904297 C144.33044633 946.93519505 163.69234884 1005.75840552 163.56567383 1066.22460938 C163.56252456 1069.35061947 163.58604011 1072.47566906 163.61132812 1075.6015625 C163.67018303 1094.26534043 161.76274595 1112.65790743 157.9375 1130.9375 C157.62002808 1132.47809082 157.62002808 1132.47809082 157.29614258 1134.04980469 C148.13713602 1177.24273338 128.86296442 1217.81475509 101.25 1252.25 C100.47914062 1253.22710938 99.70828125 1254.20421875 98.9140625 1255.2109375 C86.69565706 1270.20450127 72.76019212 1284.61477518 57.04150391 1295.94580078 C55.05848571 1297.38942073 53.11429479 1298.87841244 51.16796875 1300.37109375 C3.18906399 1336.69444097 -60.9176052 1353.02763102 -120.59472656 1345.23461914 C-122.651035 1344.93017542 -124.69990366 1344.59370636 -126.75 1344.25 C-127.57081055 1344.12109375 -128.39162109 1343.9921875 -129.23730469 1343.859375 C-135.77815284 1342.82244054 -142.26233078 1341.57617747 -148.75 1340.25 C-149.63187988 1340.08113281 -150.51375977 1339.91226562 -151.42236328 1339.73828125 C-171.79702052 1335.73483983 -191.69284585 1326.55393291 -209.5546875 1316.02783203 C-212.49683422 1314.08343431 -212.49683422 1314.08343431 -215.1875 1314.125 C-225.13697639 1318.49306281 -232.67562256 1327.7381968 -239.60546875 1335.8203125 C-242.58448142 1339.19544161 -245.66943712 1342.4676763 -248.75 1345.75 C-252.90475713 1350.18062522 -257.01797934 1354.62595574 -260.98046875 1359.23046875 C-263.3588442 1361.94486193 -265.80508905 1364.59572387 -268.25 1367.25 C-271.28894492 1370.55022784 -274.31156211 1373.85949474 -277.25 1377.25 C-280.6567735 1381.1808925 -284.18002785 1385.00196573 -287.703125 1388.828125 C-290.25555143 1391.60494057 -292.77983288 1394.39980717 -295.25 1397.25 C-298.6567735 1401.1808925 -302.18002785 1405.00196573 -305.703125 1408.828125 C-308.25555143 1411.60494057 -310.77983288 1414.39980717 -313.25 1417.25 C-316.6567735 1421.1808925 -320.18002785 1425.00196573 -323.703125 1428.828125 C-326.25555143 1431.60494057 -328.77983288 1434.39980717 -331.25 1437.25 C-334.65744919 1441.18167214 -338.18129673 1445.00361244 -341.70532227 1448.83032227 C-344.23740116 1451.58473428 -346.74035268 1454.35742499 -349.1875 1457.1875 C-352.77207317 1461.32222349 -356.49354917 1465.32581126 -360.21337891 1469.33837891 C-363.19251129 1472.55443515 -366.14407858 1475.79099925 -369.0625 1479.0625 C-373.65811312 1484.19190485 -378.37676524 1489.20231741 -383.09423828 1494.21923828 C-387.7944608 1499.2209534 -392.44885874 1504.26058501 -397.078125 1509.328125 C-399.93877668 1512.45644 -402.8111165 1515.5736595 -405.6875 1518.6875 C-406.43507568 1519.49695068 -406.43507568 1519.49695068 -407.19775391 1520.32275391 C-409.22173051 1522.51392574 -411.24612975 1524.70470689 -413.27050781 1526.89550781 C-416.76573157 1530.6784413 -420.25904689 1534.46312504 -423.75 1538.25 C-424.23919922 1538.78044922 -424.72839844 1539.31089844 -425.23242188 1539.85742188 C-430.20302083 1545.25048873 -435.14833 1550.6574683 -439.94921875 1556.203125 C-442.13775665 1558.69074726 -444.38239191 1561.12353452 -446.625 1563.5625 C-450.66513676 1567.99146195 -454.48634006 1572.5466875 -458.25 1577.2109375 C-461.82714114 1581.5593997 -465.52737444 1585.79761316 -469.23364258 1590.03613281 C-472.15385517 1593.38141988 -475.0066447 1596.75604144 -477.75 1600.25 C-476.08176303 1605.07461714 -473.44714791 1609.14169918 -470.75 1613.4375 C-465.11535311 1622.55302414 -459.79068161 1631.79318013 -454.75 1641.25 C-454.09281982 1642.47831543 -454.09281982 1642.47831543 -453.42236328 1643.73144531 C-435.90815036 1676.76689625 -424.14093117 1712.44888801 -417.75 1749.25 C-417.57210938 1750.24225586 -417.39421875 1751.23451172 -417.2109375 1752.25683594 C-412.22426424 1781.23692715 -412.67200247 1813.30695441 -417.75 1842.25 C-417.90033691 1843.18021973 -418.05067383 1844.11043945 -418.20556641 1845.06884766 C-422.67368349 1872.21625476 -432.32766026 1898.77620333 -444.75 1923.25 C-445.18248047 1924.10803223 -445.61496094 1924.96606445 -446.06054688 1925.85009766 C-458.52841381 1950.27493021 -474.81204727 1972.47838831 -493.75 1992.25 C-494.81347656 1993.37535156 -494.81347656 1993.37535156 -495.8984375 1994.5234375 C-500.2874367 1999.05575096 -505.03416032 2003.00730933 -509.94921875 2006.95703125 C-513.54214819 2009.89852299 -516.97357695 2012.9950956 -520.40234375 2016.125 C-523.1360436 2018.59943048 -525.93725994 2020.98624836 -528.765625 2023.3515625 C-530.70600057 2025.11857373 -530.70600057 2025.11857373 -531.97517395 2026.80912781 C-535.68893738 2031.5326318 -539.37676317 2034.13076566 -544.74609375 2036.73046875 C-545.49786392 2037.11060623 -546.24963409 2037.49074371 -547.02418518 2037.88240051 C-549.40480093 2039.08239661 -551.79546495 2040.26045921 -554.1875 2041.4375 C-556.57331898 2042.63004702 -558.95688509 2043.82699968 -561.34010315 2045.0247345 C-562.81620658 2045.76455868 -564.29423144 2046.50056679 -565.77452087 2047.23197937 C-569.07746905 2048.86919945 -572.29825127 2050.55469283 -575.46362305 2052.44580078 C-578.38248563 2054.04823704 -580.22062142 2054.8130689 -583.4609375 2055.19921875 C-584.35594971 2055.32055176 -585.25096191 2055.44188477 -586.1730957 2055.56689453 C-587.14722412 2055.68919434 -588.12135254 2055.81149414 -589.125 2055.9375 C-603.04560548 2057.90884393 -616.6775932 2060.97878142 -630.38232422 2064.0769043 C-644.65955709 2067.30034064 -658.19856513 2069.66392243 -672.875 2069.625 C-673.61478088 2069.62478851 -674.35456177 2069.62457703 -675.11676025 2069.62435913 C-721.6828685 2069.49251992 -768.40616792 2053.4015031 -806.75 2027.25 C-807.3284668 2026.85699707 -807.90693359 2026.46399414 -808.50292969 2026.05908203 C-817.39176976 2019.97711506 -825.63267408 2013.31957325 -833.75 2006.25 C-834.430625 2005.68152344 -835.11125 2005.11304687 -835.8125 2004.52734375 C-846.8735864 1995.20647137 -856.84370116 1984.6208281 -865.75 1973.25 C-867.28933498 1971.39389711 -868.83102841 1969.53974779 -870.375 1967.6875 C-900.49455959 1930.71314409 -915.92148028 1886.07688482 -928.28710938 1840.72338867 C-931.6868427 1824.31816049 -931.6868427 1824.31816049 -941.25390625 1811.4765625 C-942.26324219 1810.94804687 -943.27257812 1810.41953125 -944.3125 1809.875 C-945.56160811 1809.19846443 -946.80882917 1808.51843913 -948.0546875 1807.8359375 C-948.7775293 1807.44245117 -949.50037109 1807.04896484 -950.24511719 1806.64355469 C-955.53599344 1803.70005355 -960.7309 1800.58932594 -965.9375 1797.5 C-966.52722595 1797.15061371 -967.1169519 1796.80122742 -967.72454834 1796.44125366 C-977.35434693 1790.73187977 -986.85512829 1784.84168887 -996.2890625 1778.81445312 C-1000.98764693 1775.82749588 -1005.71416026 1772.88509117 -1010.4375 1769.9375 C-1011.95186646 1768.99185181 -1011.95186646 1768.99185181 -1013.49682617 1768.02709961 C-1015.55426752 1766.74236174 -1017.61180387 1765.457776 -1019.66943359 1764.17333984 C-1024.69746487 1761.03410777 -1029.72365341 1757.89192849 -1034.75 1754.75 C-1036.74999085 1753.49998536 -1038.74999086 1752.24998538 -1040.75 1751 C-1052.75000001 1743.49999999 -1052.75000001 1743.49999999 -1055.74951172 1741.62524414 C-1057.75106619 1740.37431331 -1059.75269389 1739.12349965 -1061.75439453 1737.87280273 C-1066.73121596 1734.76299731 -1071.70677968 1731.65121669 -1076.6796875 1728.53515625 C-1087.11391232 1722.00014935 -1097.57027818 1715.50404372 -1108.0625 1709.0625 C-1116.28944747 1704.01101404 -1124.48817508 1698.92051567 -1132.64111328 1693.75048828 C-1138.89092122 1689.78761752 -1145.16064799 1685.85738552 -1151.4375 1681.9375 C-1152.95174561 1680.99185181 -1152.95174561 1680.99185181 -1154.49658203 1680.02709961 C-1156.55412772 1678.7423985 -1158.61174532 1677.45781255 -1160.66943359 1676.17333984 C-1165.69746487 1673.03410777 -1170.72365341 1669.89192849 -1175.75 1666.75 C-1177.74999085 1665.49998536 -1179.74999086 1664.24998538 -1181.75 1663 C-1379.75000045 1539.24999972 -1379.75000045 1539.24999972 -1508.75146484 1458.62402344 C-1510.74650885 1457.37716154 -1512.74162575 1456.13041628 -1514.73681641 1454.88378906 C-1519.81325476 1451.71174053 -1524.88831313 1448.53751971 -1529.9609375 1445.359375 C-1539.68677592 1439.26854663 -1549.42667432 1433.20639533 -1559.23144531 1427.2434082 C-1566.25315363 1422.96341132 -1573.19948229 1418.56698307 -1580.14453125 1414.1640625 C-1585.0908111 1411.02931497 -1590.05803518 1407.92870122 -1595.0324707 1404.83886719 C-1598.20318876 1402.86391482 -1601.35271813 1400.86502358 -1604.46875 1398.8046875 C-1611.3122149 1394.28897555 -1618.12457604 1390.34685585 -1625.75 1387.25 C-1626.00523437 1387.80429688 -1626.26046875 1388.35859375 -1626.5234375 1388.9296875 C-1633.36637399 1401.87460557 -1644.31990372 1413.18093231 -1654.33642578 1423.75732422 C-1655.57284048 1425.06292689 -1656.80081254 1426.3765143 -1658.02734375 1427.69140625 C-1679.63724775 1450.1866322 -1709.68803703 1465.76789006 -1741.10131836 1467.42700195 C-1782.55304583 1468.15514133 -1819.90847097 1460.7748135 -1850.75 1431.25 C-1851.91208984 1430.20005859 -1851.91208984 1430.20005859 -1853.09765625 1429.12890625 C-1860.83351799 1421.87103271 -1866.76326803 1413.37330333 -1872.92236328 1404.78320312 C-1874.71877958 1402.29327319 -1876.53907975 1399.8232034 -1878.37109375 1397.359375 C-1878.96889648 1396.55491943 -1879.56669922 1395.75046387 -1880.18261719 1394.92163086 C-1881.29269523 1393.42932645 -1882.40388181 1391.93784545 -1883.51660156 1390.44750977 C-1884.61374481 1388.96515258 -1885.70079686 1387.47529202 -1886.77954102 1385.97949219 C-1887.8499715 1384.49672514 -1888.92464401 1383.01682821 -1890.02096558 1381.55310059 C-1897.40851883 1371.67004047 -1902.57743395 1362.2646937 -1905.9375 1350.375 C-1906.28495773 1349.18008438 -1906.28495773 1349.18008438 -1906.63943481 1347.96102905 C-1911.2617677 1331.49966172 -1911.74232319 1315.07609847 -1911.6875 1298.0625 C-1911.68608002 1296.82832336 -1911.68466003 1295.59414673 -1911.68319702 1294.3225708 C-1911.45804278 1253.7522736 -1899.24767272 1212.96350224 -1871.75 1182.25 C-1870.88632813 1181.26644531 -1870.02265625 1180.28289062 -1869.1328125 1179.26953125 C-1860.34398553 1169.37915875 -1850.92748524 1160.41303632 -1839.75 1153.25 C-1839.20891602 1152.9008252 -1838.66783203 1152.55165039 -1838.11035156 1152.19189453 C-1806.56260699 1132.00379036 -1767.17745553 1122.41812983 -1730 1129.875 C-1726.88717109 1130.57439546 -1723.81766746 1131.37448865 -1720.75 1132.25 C-1719.66984619 1132.55550781 -1719.66984619 1132.55550781 -1718.56787109 1132.8671875 C-1697.31217406 1139.12369065 -1679.44760118 1150.68587919 -1663.4296875 1165.76171875 C-1661.35575993 1167.68750863 -1659.26953758 1169.485387 -1657.0625 1171.25 C-1652.81253129 1174.85634364 -1649.4928443 1179.24781596 -1646.05371094 1183.609375 C-1644.64820717 1185.37809885 -1643.22059944 1187.12728973 -1641.7890625 1188.875 C-1637.06837391 1194.66256571 -1632.49271392 1200.45187969 -1628.375 1206.6875 C-1627.7459375 1207.63882812 -1627.116875 1208.59015625 -1626.46875 1209.5703125 C-1625.3658418 1211.28984665 -1624.29944609 1213.03367622 -1623.28125 1214.8046875 C-1621.89815433 1217.02532444 -1620.76197601 1218.58492973 -1618.75 1220.25 C-1611.19906669 1221.03436701 -1602.91784025 1217.90045135 -1595.75 1215.8671875 C-1593.86244995 1215.3380928 -1593.86244995 1215.3380928 -1591.93676758 1214.79830933 C-1577.19187748 1210.62721959 -1562.62377966 1205.8972144 -1548.06264496 1201.13133621 C-1545.70495618 1200.3602687 -1543.34651502 1199.5915438 -1540.987854 1198.82345581 C-1490.00992359 1182.21857285 -1439.17473783 1165.16069341 -1388.69903564 1147.08288574 C-1379.83033808 1143.91103458 -1370.93345185 1140.82185117 -1362.034729 1137.73547363 C-1294.75026545 1114.7401169 -1294.75026545 1114.7401169 -1228.64355469 1088.63452148 C-1223.03781663 1086.25 -1223.03781663 1086.25 -1219.75 1086.25 C-1220.17297363 1084.97491577 -1220.17297363 1084.97491577 -1220.60449219 1083.67407227 C-1231.58365455 1050.45558696 -1236.20253975 1021.26509223 -1235.63354492 986.10327148 C-1235.58509836 982.85401042 -1235.55539766 979.60496046 -1235.52734375 976.35546875 C-1235.50558578 975.38554489 -1235.48382782 974.41562103 -1235.46141052 973.41630554 C-1235.33575557 956.00196837 -1245.1173583 943.37016689 -1256.66015625 931.28515625 C-1258.7590526 929.16653279 -1260.94049102 927.20601086 -1263.2109375 925.2734375 C-1269.21994991 920.08218168 -1274.75650614 914.39220415 -1280.35913086 908.77124023 C-1282.3079687 906.81704376 -1284.26209272 904.86824853 -1286.21679688 902.91992188 C-1291.72917407 897.41053581 -1297.2150245 891.92670889 -1302.26538086 885.98413086 C-1304.98531942 882.80706728 -1307.879454 879.79049221 -1310.75 876.75 C-1312.07295302 875.3437842 -1313.39586863 873.9375332 -1314.71875 872.53125 C-1315.72228516 871.46583984 -1315.72228516 871.46583984 -1316.74609375 870.37890625 C-1319.91942496 867.00762846 -1323.08434102 863.62847989 -1326.25 860.25 C-1326.86302979 859.59644531 -1327.47605957 858.94289063 -1328.10766602 858.26953125 C-1331.32468243 854.83984389 -1334.53807686 851.40685806 -1337.74609375 847.96875 C-1343.43800579 841.87387073 -1349.12562611 835.80372081 -1355.07421875 829.95703125 C-1356.82018012 828.17851116 -1358.44226405 826.33093732 -1360.0625 824.4375 C-1362.97250489 821.04804351 -1366.07160708 817.88549239 -1369.25 814.75 C-1372.32405234 811.71716171 -1375.3299926 808.67060574 -1378.125 805.375 C-1381.31129433 801.63456753 -1384.75880254 798.20196502 -1388.25 794.75 C-1391.67845382 791.35994409 -1395.07260763 787.99805967 -1398.1875 784.3125 C-1401.49572658 780.40730021 -1405.11513741 776.84719074 -1408.75 773.25 C-1412.93844516 769.1049191 -1416.9767072 764.94083638 -1420.78125 760.4375 C-1424.23766973 756.59703363 -1427.96302595 753.01845378 -1431.63452148 749.38500977 C-1435.20698233 745.83542182 -1438.59604401 742.21842121 -1441.84765625 738.37109375 C-1444.53152487 735.37860779 -1447.39234089 732.57566741 -1450.25 729.75 C-1453.67844551 726.35993619 -1457.07260699 722.99806043 -1460.1875 719.3125 C-1463.49572658 715.40730021 -1467.11513741 711.84719074 -1470.75 708.25 C-1474.93844516 704.1049191 -1478.9767072 699.94083638 -1482.78125 695.4375 C-1485.64838676 692.25179249 -1488.70431879 689.26415242 -1491.75 686.25 C-1495.93844192 682.10491669 -1499.97670717 677.94083641 -1503.78125 673.4375 C-1506.64838676 670.25179249 -1509.70431879 667.26415242 -1512.75 664.25 C-1516.93844192 660.10491669 -1520.97670717 655.94083641 -1524.78125 651.4375 C-1527.64838676 648.25179249 -1530.70431879 645.26415242 -1533.75 642.25 C-1537.93844192 638.10491669 -1541.97670717 633.94083641 -1545.78125 629.4375 C-1549.23490561 625.60010488 -1552.95708313 622.02424795 -1556.62573242 618.39379883 C-1560.28762492 614.75543972 -1563.77680889 611.0470444 -1567.11328125 607.10546875 C-1569.06900088 604.88836416 -1571.1455589 602.82624088 -1573.25 600.75 C-1576.57426543 597.46484357 -1579.6963983 594.09219312 -1582.73828125 590.546875 C-1585.8691203 586.97224711 -1589.11750177 583.50744321 -1592.35131836 580.02612305 C-1595.00116127 577.16680966 -1597.60437883 574.28734478 -1600.125 571.3125 C-1607.92257399 562.34911225 -1616.27755962 553.06802243 -1626.75 547.25 C-1628.02617188 548.30574219 -1628.02617188 548.30574219 -1629.328125 549.3828125 C-1655.96924708 571.18826028 -1686.78252642 594.23436857 -1722.7109375 594.453125 C-1723.45977203 594.45882507 -1724.20860657 594.46452515 -1724.98013306 594.47039795 C-1726.56177381 594.47979745 -1728.14343371 594.4863617 -1729.72509766 594.49023438 C-1732.08403264 594.4998333 -1734.44205403 594.53085914 -1736.80078125 594.5625 C-1766.04619832 594.76655159 -1795.03650279 585.42932919 -1818.75 568.25 C-1819.60319824 567.63584229 -1819.60319824 567.63584229 -1820.47363281 567.00927734 C-1835.02470599 556.39388441 -1847.06326354 543.69400651 -1857.75 529.25 C-1858.68199219 528.02796875 -1858.68199219 528.02796875 -1859.6328125 526.78125 C-1879.26779552 500.1142033 -1890.36458283 466.24811813 -1891.75 433.25 C-1891.82927734 431.45175781 -1891.82927734 431.45175781 -1891.91015625 429.6171875 C-1893.22345741 384.2831491 -1876.76206491 335.73725466 -1845.75 302.25 C-1845.00194092 301.43619873 -1845.00194092 301.43619873 -1844.23876953 300.60595703 C-1818.48570468 272.90251807 -1783.74715927 257.79859942 -1746.0625 256.08203125 C-1710.68181115 255.8734187 -1676.74862671 266.30282686 -1648.75 288.25 C-1647.43322266 289.26126953 -1647.43322266 289.26126953 -1646.08984375 290.29296875 C-1610.28919079 318.572909 -1590.09672725 360.38783421 -1583.4375 405 C-1580.50398817 433.16740969 -1585.15398948 459.29166766 -1592.91064453 486.30761719 C-1594.23307383 490.94342811 -1595.4916496 495.59645613 -1596.75 500.25 C-1596.28489014 500.70487793 -1595.81978027 501.15975586 -1595.34057617 501.62841797 C-1592.21861023 504.69090472 -1589.22208489 507.80451223 -1586.375 511.125 C-1583.78365795 514.1346753 -1581.07745217 516.96088616 -1578.25 519.75 C-1575.48439592 522.47829407 -1572.83712969 525.23516834 -1570.3125 528.1875 C-1567.59380752 531.3603592 -1564.72248325 534.31338382 -1561.75 537.25 C-1558.18599698 540.77106323 -1554.84695832 544.38186008 -1551.59375 548.1875 C-1548.59649772 551.54035849 -1545.35840366 554.64893756 -1542.16015625 557.80859375 C-1539.48145468 560.52202727 -1537.00391882 563.35777023 -1534.52734375 566.25390625 C-1532.51731223 568.51132626 -1530.40167047 570.62735713 -1528.25 572.75 C-1525.48439592 575.47829407 -1522.83712969 578.23516834 -1520.3125 581.1875 C-1517.59380752 584.3603592 -1514.72248325 587.31338382 -1511.75 590.25 C-1508.18599698 593.77106323 -1504.84695832 597.38186008 -1501.59375 601.1875 C-1498.59649772 604.54035849 -1495.35840366 607.64893756 -1492.16015625 610.80859375 C-1489.48145468 613.52202727 -1487.00391882 616.35777023 -1484.52734375 619.25390625 C-1482.51731223 621.51132626 -1480.40167047 623.62735713 -1478.25 625.75 C-1475.48439592 628.47829407 -1472.83712969 631.23516834 -1470.3125 634.1875 C-1467.59380752 637.3603592 -1464.72248325 640.31338382 -1461.75 643.25 C-1458.18599698 646.77106323 -1454.84695832 650.38186008 -1451.59375 654.1875 C-1449.40203687 656.63924689 -1447.08932896 658.93885573 -1444.75 661.25 C-1441.18599698 664.77106323 -1437.84695832 668.38186008 -1434.59375 672.1875 C-1431.59649772 675.54035849 -1428.35840366 678.64893756 -1425.16015625 681.80859375 C-1422.48145468 684.52202727 -1420.00391882 687.35777023 -1417.52734375 690.25390625 C-1415.51731223 692.51132626 -1413.40167047 694.62735713 -1411.25 696.75 C-1408.48439592 699.47829407 -1405.83712969 702.23516834 -1403.3125 705.1875 C-1400.59380752 708.3603592 -1397.72248325 711.31338382 -1394.75 714.25 C-1391.18599698 717.77106323 -1387.84695832 721.38186008 -1384.59375 725.1875 C-1381.59649772 728.54035849 -1378.35840366 731.64893756 -1375.16015625 734.80859375 C-1372.48145468 737.52202727 -1370.00391882 740.35777023 -1367.52734375 743.25390625 C-1365.51731223 745.51132626 -1363.40167047 747.62735713 -1361.25 749.75 C-1358.48439592 752.47829407 -1355.83712969 755.23516834 -1353.3125 758.1875 C-1350.59380752 761.3603592 -1347.72248325 764.31338382 -1344.75 767.25 C-1341.18599698 770.77106323 -1337.84695832 774.38186008 -1334.59375 778.1875 C-1331.59649772 781.54035849 -1328.35840366 784.64893756 -1325.16015625 787.80859375 C-1322.48145468 790.52202727 -1320.00391882 793.35777023 -1317.52734375 796.25390625 C-1315.51731223 798.51132626 -1313.40167047 800.62735713 -1311.25 802.75 C-1308.48439592 805.47829407 -1305.83712969 808.23516834 -1303.3125 811.1875 C-1300.59380752 814.3603592 -1297.72248325 817.31338382 -1294.75 820.25 C-1291.18599698 823.77106323 -1287.84695832 827.38186008 -1284.59375 831.1875 C-1281.59649772 834.54035849 -1278.35840366 837.64893756 -1275.16015625 840.80859375 C-1272.48145468 843.52202727 -1270.00391882 846.35777023 -1267.52734375 849.25390625 C-1265.51731223 851.51132626 -1263.40167047 853.62735713 -1261.25 855.75 C-1258.48439592 858.47829407 -1255.83712969 861.23516834 -1253.3125 864.1875 C-1250.59380752 867.3603592 -1247.72248325 870.31338382 -1244.75 873.25 C-1241.18861653 876.76847524 -1237.85111916 880.37570412 -1234.6015625 884.1796875 C-1231.56925041 887.57024743 -1228.29459371 890.71558248 -1225.0546875 893.90625 C-1223.16069751 895.83234152 -1221.43123064 897.76600062 -1219.75 899.875 C-1219.09 900.65875 -1218.43 901.4425 -1217.75 902.25 C-1217.09 902.25 -1216.43 902.25 -1215.75 902.25 C-1213.97516884 900.05649073 -1212.3206149 897.858546 -1210.6875 895.5625 C-1210.19797852 894.88493652 -1209.70845703 894.20737305 -1209.20410156 893.50927734 C-1206.08087372 889.16898375 -1203.02722652 884.78256773 -1200 880.375 C-1192.50648528 869.49346 -1184.22744312 859.47803672 -1174.75 850.25 C-1174.28851562 849.755 -1173.82703125 849.26 -1173.3515625 848.75 C-1159.89610049 834.57253759 -1142.31912053 824.42092432 -1124.75 816.25 C-1123.73292969 815.77691406 -1122.71585938 815.30382813 -1121.66796875 814.81640625 C-1082.83971855 797.7659708 -1037.5660753 798.09473782 -998.17041016 812.99926758 C-966.57466547 825.42118945 -939.87444848 845.69940079 -918.75 872.25 C-917.85118736 873.34711422 -916.95141668 874.44344414 -916.05078125 875.5390625 C-901.76133591 893.08623115 -892.64694928 912.40585274 -885.6875 933.8125 C-885.16577915 935.39635095 -884.64396837 936.98017228 -884.12207031 938.56396484 C-873.75 970.23928092 -873.75 970.23928092 -873.75 976.25 C-872.47823931 976.30369326 -871.20647863 976.35738652 -869.89617974 976.41270685 C-857.14039535 976.97267031 -844.42895963 977.81750182 -831.70310974 978.84411621 C-829.67240823 979.00541756 -827.64168338 979.1664252 -825.61093765 979.32716894 C-820.09453959 979.7646575 -814.57847711 980.20625177 -809.06246555 980.64858317 C-803.08932793 981.12682509 -797.11588038 981.60116682 -791.14247131 982.07600403 C-780.81162238 982.89775201 -770.4809677 983.72190786 -760.15044975 984.54780579 C-749.31897363 985.41374486 -738.48738834 986.27829829 -727.65565681 987.14103699 C-726.97953192 987.19489065 -726.30340703 987.24874431 -725.6067935 987.3042299 C-722.17219049 987.57779078 -718.73758557 987.85132779 -715.30297995 988.12485594 C-691.02656018 990.05824895 -666.75039022 991.99476219 -642.47436523 993.93310547 C-618.93380916 995.81271848 -595.39313186 997.69080223 -571.85229492 999.56689453 C-570.76340204 999.65367492 -570.76340204 999.65367492 -569.65251132 999.74220844 C-563.08552543 1000.26556962 -556.51853818 1000.78891388 -549.95154944 1001.31223938 C-505.25411594 1004.87420432 -460.5568029 1008.43768276 -415.85983849 1012.0055294 C-411.1771642 1012.37931274 -406.49448264 1012.75300476 -401.81179428 1013.12661171 C-396.41800599 1013.55696197 -391.02423426 1013.98751919 -385.63047589 1014.41824418 C-383.68272561 1014.57375306 -381.73496986 1014.72919353 -379.78720801 1014.88455743 C-370.10675212 1015.65677503 -360.42673877 1016.43219827 -350.75 1017.25 C-350.78351563 1016.13882813 -350.81703125 1015.02765625 -350.8515625 1013.8828125 C-350.84493656 1008.84930329 -350.04924267 1004.06227329 -349.125 999.125 C-348.94606201 998.16706543 -348.76712402 997.20913086 -348.58276367 996.22216797 C-338.85504786 946.01222022 -314.865428 898.1640482 -279.99609375 860.68359375 C-278.11544087 858.64594724 -276.33355404 856.56907394 -274.5625 854.4375 C-236.50712558 810.97098843 -179.22082108 785.86960764 -122.75 779.25 C-121.65171875 779.11722656 -120.5534375 778.98445313 -119.421875 778.84765625 C-74.35178971 774.44910515 -74.35178971 774.44910515 -60.75 781.25 C-60.76189188 780.18352739 -60.76189188 780.18352739 -60.77402401 779.09550989 C-60.82226334 771.32714928 -60.52339425 763.620145 -60.06665039 755.86660767 C-59.99314645 754.57174639 -59.91964251 753.27688512 -59.84391117 751.94278562 C-59.64172802 748.382448 -59.43534132 744.8223651 -59.22822618 741.26231146 C-59.00485353 737.40960153 -58.78548366 733.55666342 -58.56564331 729.70375061 C-58.18470811 723.03639246 -57.80137514 716.36917573 -57.41647339 709.70204544 C-56.85917699 700.04747095 -56.30644087 690.39263934 -55.75494254 680.7377321 C-54.85882879 665.05060605 -53.96025966 649.3636218 -53.05957031 633.67675781 C-53.00573925 632.73919129 -52.95190818 631.80162478 -52.89644587 630.83564715 C-52.35051761 621.32785417 -51.80432918 611.82007614 -51.25796539 602.31230817 C-50.98542416 597.56953526 -50.71291587 592.82676045 -50.44042969 588.08398438 C-50.38666377 587.1481751 -50.33289785 586.21236583 -50.27750266 585.2481987 C-49.3796849 569.61984225 -48.48498865 553.99130868 -47.59259319 538.36264169 C-47.04284695 528.73736289 -46.49035972 519.11224902 -45.93428206 509.48733388 C-45.55319647 502.88805167 -45.17496807 496.28860962 -44.79894376 489.6890371 C-44.5822551 485.88769783 -44.36428114 482.08644405 -44.14275742 478.28538322 C-43.9019475 474.15294915 -43.66738903 470.02018267 -43.43334961 465.88735962 C-43.32829401 464.11066153 -43.32829401 464.11066153 -43.22111607 462.29807055 C-42.8924735 456.40299549 -42.65660482 450.50811133 -42.5440979 444.60480309 C-42.50790816 442.89799938 -42.50790816 442.89799938 -42.47098732 441.1567148 C-42.76570364 438.08640169 -43.16263079 437.0249598 -45.36108398 434.93579102 C-47.09152693 433.76098616 -47.09152693 433.76098616 -48.99609375 432.75390625 C-49.96289818 432.14264137 -49.96289818 432.14264137 -50.94923401 431.51902771 C-53.00284057 430.23429169 -55.08986228 429.02370959 -57.1875 427.8125 C-58.55954604 426.97675649 -59.92872622 426.13628893 -61.29492188 425.29101562 C-63.28873824 424.05912296 -65.2839266 422.83125847 -67.29176331 421.62232971 C-72.42400419 418.52389711 -77.13122693 415.07499079 -81.75 411.25 C-83.13251953 410.18072266 -83.13251953 410.18072266 -84.54296875 409.08984375 C-96.20389141 399.82578284 -106.78943825 389.15098788 -115.75 377.25 C-116.19520996 376.65944824 -116.64041992 376.06889648 -117.09912109 375.46044922 C-159.37741567 318.8558607 -177.84110118 245.80034453 -168.22607422 175.7824707 C-162.62802294 139.8805886 -150.63623959 104.24049787 -129.75 74.25 C-129.29689453 73.59773437 -128.84378906 72.94546875 -128.37695312 72.2734375 C-102.52804431 35.53891139 -66.46855465 9.05323773 -21.75 1.25 C-20.84789795 1.07871582 -19.9457959 0.90743164 -19.01635742 0.73095703 C-12.73030232 -0.19463745 -6.34397334 0.00513901 0 0 Z M-873.75 1032.25 C-875.88141975 1039.33488687 -877.81065241 1046.40610298 -879.41259766 1053.62939453 C-883.48674515 1071.80557872 -889.85052407 1088.893377 -898.75 1105.25 C-899.06936523 1105.85247559 -899.38873047 1106.45495117 -899.71777344 1107.07568359 C-906.84322651 1120.49106706 -915.9320449 1131.87506753 -926.38525391 1142.81787109 C-927.69948467 1144.19699053 -928.99660661 1145.59235213 -930.29296875 1146.98828125 C-942.92096959 1160.18941374 -957.97938955 1170.19487666 -973.75 1179.25 C-974.37551758 1179.61432129 -975.00103516 1179.97864258 -975.64550781 1180.35400391 C-984.61829531 1185.54147275 -993.94484997 1189.52984168 -1003.60253906 1193.28173828 C-1004.51487305 1193.63993652 -1005.42720703 1193.99813477 -1006.3671875 1194.3671875 C-1007.18815918 1194.68284668 -1008.00913086 1194.99850586 -1008.85498047 1195.32373047 C-1010.92760428 1196.09922432 -1010.92760428 1196.09922432 -1011.75 1198.25 C-1010.62278843 1200.75009579 -1010.62278843 1200.75009579 -1008.91015625 1203.5859375 C-1008.26747803 1204.69855957 -1007.6247998 1205.81118164 -1006.96264648 1206.95751953 C-1006.24600692 1208.18005753 -1005.52928925 1209.40254975 -1004.8125 1210.625 C-1004.07866716 1211.88997456 -1003.34568783 1213.1554446 -1002.61352539 1214.42138672 C-1001.08840023 1217.05693129 -999.55958638 1219.69028463 -998.02832031 1222.32226562 C-994.54426552 1228.31862953 -991.11985648 1234.34895853 -987.6875 1240.375 C-982.56675084 1249.3478337 -977.41822248 1258.30442491 -972.25 1267.25 C-965.04787206 1279.71602223 -957.90170324 1292.21361244 -950.76611328 1304.71777344 C-947.76266824 1309.9804792 -944.75570035 1315.24117186 -941.74899292 1320.50201416 C-940.08251718 1323.41792672 -938.41627018 1326.33396998 -936.75 1329.25 C-936.08333443 1330.41666729 -935.41666776 1331.58333396 -934.75 1332.75 C-908.75 1378.25 -908.75 1378.25 -882.75 1423.75 C-882.42000504 1424.32748993 -882.09001007 1424.90497986 -881.75001526 1425.49996948 C-881.08329335 1426.66673537 -880.41657582 1427.83350376 -879.74986267 1429.00027466 C-878.08407716 1431.91544378 -876.41821573 1434.83056947 -874.75219727 1437.74560547 C-871.74159687 1443.01343195 -868.73155853 1448.28157559 -865.72433472 1453.55133057 C-858.31777767 1466.53021403 -850.88970055 1479.4961162 -843.40966797 1492.43286133 C-840.10061288 1498.16020635 -836.80677912 1503.89574919 -833.53515625 1509.64453125 C-833.18162079 1510.26528534 -832.82808533 1510.88603943 -832.46383667 1511.52560425 C-830.76602802 1514.50701869 -829.07045041 1517.48963195 -827.37890625 1520.47460938 C-822.99796847 1528.17319482 -818.43623041 1535.73460926 -813.75 1543.25 C-810.28100152 1542.1484624 -807.03768029 1541.01646628 -803.8515625 1539.25390625 C-803.13830811 1538.86589844 -802.42505371 1538.47789062 -801.69018555 1538.078125 C-800.5441687 1537.45164062 -800.5441687 1537.45164062 -799.375 1536.8125 C-739.94994248 1505.15935992 -675.92845646 1492.37791335 -610.35546875 1512.15234375 C-575.274394 1523.11756474 -539.4088265 1540.26779563 -513.75 1567.25 C-510.52451847 1565.84321194 -508.49383125 1564.18721445 -506.10546875 1561.6171875 C-505.42806641 1560.89273438 -504.75066406 1560.16828125 -504.05273438 1559.421875 C-503.35470703 1558.66390625 -502.65667969 1557.9059375 -501.9375 1557.125 C-501.25107422 1556.39023438 -500.56464844 1555.65546875 -499.85742188 1554.8984375 C-495.95490208 1550.70424403 -492.14514451 1546.44028989 -488.38696289 1542.11669922 C-485.93504558 1539.32067241 -483.40894017 1536.59654469 -480.875 1533.875 C-476.5538572 1529.21436289 -472.2762945 1524.5189131 -468.03515625 1519.78515625 C-465.41726871 1516.88086734 -462.77246797 1514.00229225 -460.125 1511.125 C-457.14775181 1507.88788971 -454.19046979 1504.6386208 -451.3125 1501.3125 C-447.73062691 1497.180891 -444.01162042 1493.18070073 -440.29541016 1489.17041016 C-436.50112961 1485.07306071 -432.75453553 1480.93589227 -429.02734375 1476.77734375 C-426.45190225 1473.91917797 -423.85314236 1471.08289739 -421.25 1468.25 C-417.89706883 1464.60072829 -414.56001643 1460.93830402 -411.25 1457.25 C-407.93998278 1453.5616951 -404.602855 1449.89934235 -401.25 1446.25 C-396.38056955 1440.94878077 -391.55576976 1435.60895189 -386.75 1430.25 C-381.47916984 1424.37245558 -376.17768328 1418.52500173 -370.83642578 1412.71142578 C-367.95606171 1409.57368887 -365.09483753 1406.41996182 -362.25 1403.25 C-358.47462783 1399.04315673 -354.66019552 1394.87325147 -350.8359375 1390.7109375 C-347.95577393 1387.57332914 -345.09468386 1384.41979059 -342.25 1381.25 C-338.93998278 1377.5616951 -335.602855 1373.89934235 -332.25 1370.25 C-327.38056955 1364.94878077 -322.55576976 1359.60895189 -317.75 1354.25 C-312.47916984 1348.37245558 -307.17768328 1342.52500173 -301.83642578 1336.71142578 C-298.95606171 1333.57368887 -296.09483753 1330.41996182 -293.25 1327.25 C-289.47462783 1323.04315673 -285.66019552 1318.87325147 -281.8359375 1314.7109375 C-278.22604277 1310.77837062 -274.64981991 1306.81718968 -271.09375 1302.8359375 C-269.34182006 1300.90297479 -267.57381611 1298.99613525 -265.78125 1297.1015625 C-265.27787109 1296.5653125 -264.77449219 1296.0290625 -264.25585938 1295.4765625 C-263.27356442 1294.43183894 -262.28551742 1293.3924853 -261.29101562 1292.359375 C-257.82268357 1288.83488884 -257.82268357 1288.83488884 -256.75 1284.25 C-258.07833736 1281.9378791 -258.07833736 1281.9378791 -260.125 1279.6875 C-260.8675 1278.80835938 -261.61 1277.92921875 -262.375 1277.0234375 C-263.15875 1276.10820313 -263.9425 1275.19296875 -264.75 1274.25 C-266.21088014 1272.43955211 -267.66920747 1270.6270414 -269.125 1268.8125 C-272.22938275 1265.02003242 -275.43397544 1261.35861496 -278.75 1257.75 C-283.64258416 1252.41949935 -288.24681757 1246.9118057 -292.75 1241.25 C-293.95462891 1239.75533203 -293.95462891 1239.75533203 -295.18359375 1238.23046875 C-301.74364995 1229.98798435 -307.38820994 1221.31058742 -312.75 1212.25 C-313.36875 1211.21214355 -313.36875 1211.21214355 -314 1210.15332031 C-338.19135723 1169.23590749 -346.08297118 1123.71476933 -353.33129883 1077.40893555 C-353.65703877 1075.21197063 -353.65703877 1075.21197063 -354.75 1073.25 C-357.35502517 1072.79798116 -359.87544903 1072.47822956 -362.50243664 1072.23256874 C-363.30858867 1072.15057638 -364.11474069 1072.06858403 -364.94532157 1071.98410705 C-374.5222352 1071.031721 -384.11633342 1070.27571184 -393.71101379 1069.52890015 C-395.76890569 1069.36655236 -397.82677758 1069.20395075 -399.88463134 1069.04112017 C-405.48928822 1068.59837781 -411.09422074 1068.15921843 -416.69920886 1067.72069216 C-422.76260492 1067.24565924 -428.82573524 1066.76725629 -434.88890076 1066.28929138 C-446.05973789 1065.40918995 -457.2307783 1064.53169907 -468.40192638 1063.65555574 C-478.71649994 1062.84657872 -489.03098084 1062.03643197 -499.34537315 1061.22514725 C-500.03103822 1061.1712172 -500.71670328 1061.11728716 -501.42314608 1061.06172287 C-504.2067326 1060.84278154 -506.99031863 1060.62383411 -509.77390398 1060.40487794 C-535.84129186 1058.35443559 -561.90893215 1056.30721881 -587.97669696 1054.26157467 C-611.13382061 1052.44432342 -634.29075021 1050.62461925 -657.44750977 1048.80273438 C-658.93639235 1048.68559554 -660.42527495 1048.56845677 -661.91415755 1048.45131807 C-662.65023887 1048.39340644 -663.3863202 1048.33549481 -664.14470702 1048.27582828 C-667.8500888 1047.98430662 -671.55547103 1047.69279083 -675.26085377 1047.40128136 C-675.99188464 1047.34376961 -676.72291551 1047.28625786 -677.47609883 1047.22700332 C-696.84104628 1045.70355596 -716.20613876 1044.18195445 -735.5712778 1042.66094458 C-737.65400789 1042.49735768 -739.73673796 1042.33377049 -741.81946798 1042.17018266 C-743.201024 1042.06166893 -744.58258014 1041.95315666 -745.96413639 1041.84464586 C-755.59726924 1041.08802135 -765.23034573 1040.33068301 -774.8633842 1039.57285802 C-787.26678009 1038.59709295 -799.67027784 1037.62263679 -812.07394711 1036.65035175 C-818.05538109 1036.18145408 -824.03676414 1035.7119298 -830.01801682 1035.24072456 C-835.48789627 1034.80982531 -840.95791319 1034.38071807 -846.42804774 1033.95306964 C-848.41148831 1033.79768791 -850.39487696 1033.64164184 -852.37820897 1033.48488061 C-855.06494387 1033.27262211 -857.75185459 1033.06274805 -860.43882465 1032.85349083 C-861.21629967 1032.79149305 -861.99377469 1032.72949528 -862.79480955 1032.66561878 C-866.45544624 1032.38305766 -870.07800006 1032.18006941 -873.75 1032.25 Z M-1201.61816406 1134.77197266 C-1202.59153214 1135.1077533 -1203.56490021 1135.44353394 -1204.56776428 1135.78948975 C-1205.62305832 1136.16059875 -1206.67835236 1136.53170776 -1207.765625 1136.9140625 C-1208.87115219 1137.2974176 -1209.97667938 1137.68077271 -1211.1157074 1138.07574463 C-1214.74589596 1139.33623884 -1218.37294028 1140.60553354 -1222 1141.875 C-1224.53059746 1142.75654639 -1227.06182063 1143.63628995 -1229.59301758 1144.51611328 C-1235.86217936 1146.69656733 -1242.12847955 1148.88511735 -1248.39385986 1151.07641602 C-1251.36096321 1152.11396058 -1254.32850701 1153.15022566 -1257.29638672 1154.18554688 C-1266.01966647 1157.22867786 -1274.73952337 1160.28145974 -1283.45710754 1163.34086609 C-1295.50023777 1167.56695352 -1307.54719055 1171.78213176 -1319.59375381 1175.99842072 C-1321.56303582 1176.68768754 -1323.53229878 1177.37700872 -1325.5015564 1178.06634521 C-1342.25162394 1183.92961177 -1359.00453595 1189.784636 -1375.76235962 1195.6257019 C-1392.09658173 1201.31949817 -1408.42366923 1207.03362701 -1424.75 1212.75 C-1442.75069566 1219.05262193 -1460.75363014 1225.34870069 -1478.76318359 1231.62597656 C-1495.09712965 1237.31968561 -1511.42392 1243.03378664 -1527.75 1248.75 C-1546.10120236 1255.17516608 -1564.45397206 1261.59578823 -1582.8125 1268 C-1583.72572021 1268.31864014 -1584.63894043 1268.63728027 -1585.57983398 1268.96557617 C-1588.10651625 1269.847106 -1590.63330898 1270.72831827 -1593.16015625 1271.609375 C-1593.89460464 1271.86559631 -1594.62905304 1272.12181763 -1595.38575745 1272.38580322 C-1598.16909389 1273.35582454 -1600.95368828 1274.31789609 -1603.75 1275.25 C-1604.06026019 1279.87066076 -1604.28901216 1284.48051093 -1604.43359375 1289.109375 C-1604.56482409 1293.00197374 -1604.7910365 1296.85874553 -1605.18408203 1300.73242188 C-1607.8404663 1319.62213384 -1607.8404663 1319.62213384 -1602.77685547 1337.18798828 C-1597.35140817 1342.15285352 -1590.88951059 1344.93544542 -1584.15869141 1347.73242188 C-1578.55743731 1350.22614738 -1573.56130473 1353.59518227 -1568.4375 1356.9375 C-1566.44005143 1358.19157305 -1564.44008764 1359.44164979 -1562.4375 1360.6875 C-1553.43147843 1366.32383921 -1544.45450258 1372.00602393 -1535.47753906 1377.68847656 C-1525.91935518 1383.73749409 -1516.34511204 1389.75969821 -1506.75 1395.75 C-1495.63391782 1402.68985507 -1484.55011571 1409.67949272 -1473.47753906 1416.68847656 C-1463.91935518 1422.73749409 -1454.34511204 1428.75969821 -1444.75 1434.75 C-1433.63391782 1441.68985507 -1422.55011571 1448.67949272 -1411.47753906 1455.68847656 C-1401.91935518 1461.73749409 -1392.34511204 1467.75969821 -1382.75 1473.75 C-1371.63391782 1480.68985507 -1360.55011571 1487.67949272 -1349.47753906 1494.68847656 C-1339.91935518 1500.73749409 -1330.34511204 1506.75969821 -1320.75 1512.75 C-1309.63391782 1519.68985507 -1298.55011571 1526.67949272 -1287.47753906 1533.68847656 C-1277.91935518 1539.73749409 -1268.34511204 1545.75969821 -1258.75 1551.75 C-1247.63391782 1558.68985507 -1236.55011571 1565.67949272 -1225.47753906 1572.68847656 C-1215.91935518 1578.73749409 -1206.34511204 1584.75969821 -1196.75 1590.75 C-1185.63391782 1597.68985507 -1174.55011571 1604.67949272 -1163.47753906 1611.68847656 C-1152.89117403 1618.38819153 -1142.28123171 1625.04884401 -1131.65356445 1631.68286133 C-1124.74575262 1635.99686781 -1117.854286 1640.33579497 -1110.97265625 1644.69140625 C-1104.57960219 1648.73423133 -1098.16657654 1652.74463562 -1091.75 1656.75 C-1080.6338701 1663.689778 -1069.55011517 1670.67949306 -1058.47753906 1677.68847656 C-1048.91935518 1683.73749409 -1039.34511204 1689.75969821 -1029.75 1695.75 C-1018.63391782 1702.68985507 -1007.55011571 1709.67949272 -996.47753906 1716.68847656 C-990.90539797 1720.21487651 -985.32898229 1723.73443441 -979.75 1727.25 C-978.29158691 1728.17014893 -978.29158691 1728.17014893 -976.80371094 1729.10888672 C-959.49723574 1740.04988024 -959.49723574 1740.04988024 -941.75 1750.25 C-940.92113281 1750.71148438 -940.09226562 1751.17296875 -939.23828125 1751.6484375 C-936.90911943 1752.93268227 -936.90911943 1752.93268227 -933.75 1754.25 C-932.76 1753.92 -931.77 1753.59 -930.75 1753.25 C-930.66024902 1752.57348389 -930.57049805 1751.89696777 -930.47802734 1751.19995117 C-922.04754124 1688.69571828 -900.8197598 1630.64792464 -857.23046875 1583.9765625 C-854.95472442 1581.47503566 -852.84857915 1578.89981372 -850.75 1576.25 C-860.39235748 1557.15622281 -870.17905544 1538.27932518 -881.16796875 1519.91748047 C-883.71378857 1515.62494538 -886.16600073 1511.28014648 -888.625 1506.9375 C-893.50898843 1498.34355093 -898.5321576 1489.8365219 -903.58630371 1481.34173584 C-909.21753984 1471.87382229 -914.75693991 1462.35566033 -920.24755859 1452.80541992 C-924.36497093 1445.64458519 -928.51504315 1438.50388313 -932.6875 1431.375 C-938.10982376 1422.10450116 -943.45324158 1412.79063044 -948.77023315 1403.45953369 C-953.38484077 1395.36292071 -958.04093425 1387.29216251 -962.75 1379.25 C-967.7818979 1370.6548271 -972.75389124 1362.02687778 -977.6875 1353.375 C-984.71603507 1341.04974804 -991.79240434 1328.75277933 -998.89111328 1316.46777344 C-1002.01324605 1311.06329355 -1005.13141204 1305.65652588 -1008.25 1300.25 C-1009.49998122 1298.0833225 -1010.74998121 1295.91665583 -1012 1293.75 C-1014.5 1289.41666667 -1017 1285.08333333 -1019.5 1280.75 C-1020.11891113 1279.6772583 -1020.73782227 1278.6045166 -1021.37548828 1277.49926758 C-1022.62399222 1275.3351182 -1023.87236487 1273.17089307 -1025.12060547 1271.0065918 C-1028.26741658 1265.55077827 -1031.41658171 1260.09634816 -1034.5703125 1254.64453125 C-1035.83857819 1252.45054195 -1037.10680758 1250.25653166 -1038.375 1248.0625 C-1038.99310547 1246.99459229 -1039.61121094 1245.92668457 -1040.24804688 1244.82641602 C-1043.31714248 1239.51249851 -1046.3551894 1234.18434959 -1049.3359375 1228.8203125 C-1049.91134277 1227.78801514 -1050.48674805 1226.75571777 -1051.07958984 1225.69213867 C-1052.15169122 1223.76370377 -1053.21767249 1221.8318464 -1054.27587891 1219.89575195 C-1060.52351039 1208.08317741 -1060.52351039 1208.08317741 -1070.75 1200.25 C-1074.49420505 1199.30414413 -1078.26718456 1198.58338834 -1082.0625 1197.875 C-1107.82958399 1192.75788575 -1131.64326729 1183.09659086 -1152.75 1167.25 C-1153.79929687 1166.47785156 -1154.84859375 1165.70570312 -1155.9296875 1164.91015625 C-1161.9634576 1160.41591704 -1167.47434029 1155.76295643 -1172.7109375 1150.3359375 C-1175.88086614 1147.09313694 -1179.27861928 1144.1631365 -1182.75 1141.25 C-1183.60207031 1140.52039062 -1184.45414063 1139.79078125 -1185.33203125 1139.0390625 C-1186.65267578 1137.93691406 -1186.65267578 1137.93691406 -1188 1136.8125 C-1188.80953125 1136.13316406 -1189.6190625 1135.45382812 -1190.453125 1134.75390625 C-1194.33942129 1132.20930749 -1197.53258671 1133.34844329 -1201.61816406 1134.77197266 Z " fill="#00A2E9" transform="translate(1910.75,445.75)"/>
<path d="M0 0 C3.27930186 0.00543878 6.5585965 0.007807 9.83790207 0.00987244 C40.61658635 0.04008162 71.25964764 0.37366828 101.93851852 3.0900116 C104.5926234 3.32230489 107.24756253 3.54081035 109.90311813 3.75584412 C169.36289308 8.60424335 228.42477539 17.86197763 286.54179001 31.31785583 C287.32809799 31.49923096 288.11440598 31.68060608 288.92454147 31.86747742 C374.53740078 51.68236974 460.63708396 78.62214308 559.15897751 121.98582458 C566.43548544 125.28645801 573.7566235 128.47940335 581.08506393 131.66267395 C598.88891334 139.40419295 616.2782357 147.48585478 633.27616501 156.88426208 C639.93950839 160.55778282 646.66794635 164.10426004 653.39686203 167.65556335 C666.28106491 174.46009614 679.05903505 181.41621515 691.69169235 188.68016052 C694.70681437 190.41268052 697.72766368 192.13494728 700.74882126 193.85691833 C755.27328766 225.02380153 810.30166931 258.32667655 855.54179001 302.31785583 C856.15514206 302.91364441 856.76849411 303.50943298 857.40043259 304.12327576 C860.83672058 307.50531867 864.00664131 310.94827943 866.97929001 314.75535583 C867.65862595 315.62031677 868.33796188 316.48527771 869.03788376 317.37644958 C869.78231735 318.33744568 869.78231735 318.33744568 870.54179001 319.31785583 C866.94693174 320.51614192 866.19457477 320.05735379 862.76444626 318.68504333 C861.792332 318.29848572 860.82021774 317.9119281 859.81864548 317.51365662 C858.75790817 317.07779236 857.69717087 316.6419281 856.60429001 316.19285583 C855.4816777 315.73765564 854.3590654 315.28245544 853.20243454 314.8134613 C845.33100935 311.57741883 837.60919609 308.08066387 829.91679001 304.44285583 C796.44248101 288.63760883 762.00646581 274.79932984 727.54179001 261.31785583 C726.82837448 261.03829041 726.11495895 260.75872498 725.37992477 260.47068787 C714.80150527 256.32762687 704.18722119 252.28545579 693.54179001 248.31785583 C692.70659836 248.00630554 691.87140671 247.69475525 691.01090622 247.37376404 C589.0980063 209.41242674 484.08494205 179.83950295 270.04179001 151.56785583 C269.21430252 151.50859924 268.38681503 151.44934265 267.53425217 151.38829041 C246.79903176 149.92880091 226.07765324 149.15529471 205.29179001 149.11473083 C204.27932205 149.11190346 203.2668541 149.10907608 202.22370529 149.10616302 C196.84616989 149.0913224 191.46866018 149.0820027 186.09110641 149.07762146 C181.76777638 149.07327939 177.44465071 149.05953221 173.12137985 149.03660583 C105.04643627 148.68336244 37.47761227 154.93563107 -29.45820999 167.31785583 C-30.16145401 167.44784973 -30.86469803 167.57784363 -31.58925247 167.71177673 C-115.0483789 183.21170594 -196.66262939 208.51820889 -297.57368851 252.4641571 C-299.36916429 253.27751764 -301.16656853 254.08661718 -302.96406937 254.89549255 C-332.14702794 268.05501828 -361.12745585 282.19441848 -389.00947952 297.93748474 C-391.62980517 299.41458556 -394.26026353 300.87255576 -396.89180374 302.32957458 C-411.27771046 310.33389408 -425.3419279 318.83036715 -439.37324905 327.43455505 C-441.93163425 328.99639293 -444.49803802 330.54156428 -447.07539749 332.07176208 C-461.63938033 340.75297735 -475.62838156 350.34393723 -489.69771194 359.79637146 C-492.07192869 361.39053426 -494.44995592 362.97857598 -496.83394241 364.55809021 C-502.64705942 368.41119922 -508.38483451 372.33492587 -514.02070999 376.44285583 C-514.77247513 376.9885321 -515.52424026 377.53420837 -516.29878616 378.09642029 C-518.68792408 379.83327936 -521.073641 381.57473012 -523.45820999 383.31785583 C-524.26838577 383.90969666 -525.07856155 384.50153748 -525.91328812 385.11131287 C-539.36011331 394.94623351 -552.67477496 404.8389852 -565.34492874 415.66551208 C-572.71115374 421.95773196 -580.27716636 427.99417691 -587.91719437 433.94847107 C-591.10770603 436.44267512 -594.26373308 438.96968805 -597.38008499 441.55613708 C-610.32593339 452.29507324 -623.42999271 461.42378589 -638.7262764 468.51316833 C-640.20233333 469.19897094 -641.66573868 469.9118963 -643.12617874 470.63035583 C-656.30366343 476.63416796 -670.70564813 476.32378597 -684.07393265 471.33226013 C-712.82746651 460.04215297 -735.91531422 438.52450438 -748.38106155 410.22264099 C-759.00498638 384.41740307 -760.05949966 356.05920886 -749.70820999 330.06785583 C-742.00371167 313.10258896 -729.26339624 299.95170147 -716.27070999 286.94285583 C-715.79744278 286.46850098 -715.32417557 285.99414612 -714.83656693 285.50541687 C-709.79708215 280.46724088 -704.70425721 275.5511604 -699.29683304 270.90916443 C-696.2748853 268.29370096 -693.37308727 265.55132632 -690.45820999 262.81785583 C-686.19926943 258.84261948 -681.91572879 254.91745625 -677.50117874 251.11473083 C-675.36580593 249.23658267 -673.27837371 247.31061846 -671.19331741 245.37693787 C-666.03644609 240.598351 -660.77304431 236.03391871 -655.29414749 231.62254333 C-652.75581885 229.55971428 -650.25962011 227.45914186 -647.77363968 225.33421326 C-641.11946488 219.64702937 -634.31162716 214.19141799 -627.39619827 208.82615662 C-625.32618093 207.21510004 -623.26485579 205.59334189 -621.20430374 203.97019958 C-611.5002064 196.3444115 -601.65502453 188.95620223 -591.58272171 181.82322693 C-590.22493037 180.861133 -588.86953685 179.8956402 -587.51729202 178.92576599 C-569.28621147 165.86134984 -549.60400307 154.96189645 -530.25825882 143.65525818 C-522.45980197 139.09481678 -514.69623378 134.48038403 -506.95820999 129.81785583 C-500.45830309 125.90220541 -493.94847821 122.00536781 -487.40352249 118.16551208 C-486.80577515 117.8146907 -486.2080278 117.46386932 -485.5921669 117.10241699 C-482.51489955 115.29859221 -479.43326891 113.50274007 -476.34517288 111.71751404 C-470.61943198 108.39965523 -464.96815794 105.04111863 -459.44649124 101.38816833 C-439.0145469 88.10589897 -416.40979078 80.38214494 -393.65254593 71.98680115 C-382.53800118 67.87808707 -371.48072065 63.61897461 -360.41633987 59.3775177 C-356.93121996 58.04288881 -353.44458712 56.71230962 -349.95723343 55.38352966 C-348.864189 54.96683517 -347.77114456 54.55014069 -346.64497757 54.12081909 C-344.52354124 53.31274701 -342.40164605 52.50587836 -340.27925491 51.70031738 C-335.54262972 49.89827952 -330.8205096 48.07233381 -326.1271553 46.16014099 C-324.89746521 45.66403069 -324.89746521 45.66403069 -323.64293289 45.15789795 C-322.15119137 44.55337122 -320.66324198 43.93934463 -319.18046951 43.31314087 C-316.08268689 42.06266873 -313.63083532 41.31647639 -310.27316666 41.3433075 C-305.89625975 41.31410676 -301.96096493 40.603043 -297.68989944 39.71995544 C-296.83402646 39.54868385 -295.97815348 39.37741226 -295.09634495 39.20095062 C-292.25340051 38.63041314 -289.4124935 38.05032433 -286.57149124 37.47019958 C-284.54706721 37.06188314 -282.52251792 36.65418728 -280.49785233 36.24707031 C-276.17541962 35.3768059 -271.85381563 34.50257064 -267.53276443 33.62547302 C-260.73171432 32.24578617 -253.92785004 30.88034529 -247.12349319 29.51707458 C-227.97947666 25.67843548 -208.83934824 21.82379474 -189.72137833 17.85725403 C-155.47304101 10.75238474 -121.74114146 4.09223053 -86.70042801 2.48243713 C-83.65137123 2.32766108 -80.60498526 2.14471413 -77.55813503 1.95168877 C-51.7011926 0.31644654 -25.90441043 -0.04470222 0 0 Z " fill="#FA9701" transform="translate(815.4582099914551,-0.3178558349609375)"/>
<path d="M0 0 C1.58018995 0.00222821 3.16037998 0.00440441 4.74057007 0.00653076 C29.45447232 0.05247269 53.9987295 0.71504234 78.61749268 3.03063965 C81.89136999 3.33746391 85.16608189 3.63425487 88.44091797 3.93066406 C122.32054998 7.02396323 156.02052516 11.00044699 189.625 16.3125 C190.42711914 16.43862671 191.22923828 16.56475342 192.05566406 16.69470215 C239.21853653 24.14134106 285.42117319 35.99608901 330.625 51.3125 C331.40834717 51.5776239 332.19169434 51.8427478 332.9987793 52.11590576 C357.94969718 60.57433325 382.65182568 69.59775709 407.22651672 79.08999634 C414.28956317 81.81265577 421.37418599 84.47519504 428.46484375 87.125 C456.17179854 97.49471102 482.89793184 108.21328264 508.7890625 122.6328125 C516.44355194 126.89453328 524.22157394 130.84094896 532.25390625 134.34765625 C571.91080691 151.66941795 609.12683392 178.07419228 642.625 205.3125 C643.18026367 205.76334961 643.73552734 206.21419922 644.30761719 206.67871094 C652.21105186 213.13432801 659.53675802 219.96856993 666.625 227.3125 C664.625 228.3125 664.625 228.3125 661.83007812 227.47412109 C660.0115332 226.78697021 660.0115332 226.78697021 658.15625 226.0859375 C657.4749855 225.83146851 656.79372101 225.57699951 656.09181213 225.31481934 C654.57897496 224.74904062 653.06740688 224.17986049 651.55691528 223.60784912 C647.26162544 221.98231296 642.95620828 220.38391296 638.65234375 218.78125 C637.2348307 218.25227615 637.2348307 218.25227615 635.78868103 217.71261597 C622.22101 212.65750401 608.59437639 207.76389704 594.97595215 202.84762573 C591.21946553 201.49136198 587.46314862 200.1346297 583.70703125 198.77734375 C582.77107935 198.4392056 582.77107935 198.4392056 581.81621933 198.09423637 C572.53669107 194.74069125 563.27065834 191.3514283 554.01171875 187.94140625 C467.16215644 155.98611296 377.79694388 133.11070036 225.625 116.3125 C224.85357666 116.26029297 224.08215332 116.20808594 223.28735352 116.15429688 C138.50616582 110.4511712 53.12834102 115.71658311 -30.375 131.3125 C-31.04843445 131.43778076 -31.7218689 131.56306152 -32.41571045 131.69213867 C-70.95696888 138.89357906 -109.08570662 148.60372351 -146.38568115 160.67047119 C-148.32804387 161.29734547 -150.27228908 161.91797129 -152.21728516 162.53662109 C-213.22205948 182.01131403 -272.49621357 208.05428925 -328.375 239.3125 C-330.01178711 240.22757324 -330.01178711 240.22757324 -331.68164062 241.16113281 C-367.14874548 261.05755781 -401.80803682 282.91887557 -434.375 307.3125 C-435.76158015 308.3426345 -437.14830218 309.37257806 -438.53515625 310.40234375 C-446.88190042 316.61802505 -455.15809485 322.92627848 -463.375 329.3125 C-463.92333496 329.73853516 -464.47166992 330.16457031 -465.03662109 330.60351562 C-472.57204829 336.46850653 -480.01519737 342.43876239 -487.41333008 348.47583008 C-492.26054751 352.42504655 -497.15783617 356.3036899 -502.08813477 360.1484375 C-505.86234876 363.09999121 -509.58373072 366.10913394 -513.28637695 369.14990234 C-553.57990534 402.21399781 -553.57990534 402.21399781 -576.6875 401.25 C-594.36132041 399.39182055 -608.9451157 390.72156373 -621.375 378.3125 C-622.13425781 377.56484375 -622.89351562 376.8171875 -623.67578125 376.046875 C-633.4570259 365.84329681 -639.95844056 353.67398996 -644.375 340.3125 C-644.60832031 339.62542969 -644.84164063 338.93835938 -645.08203125 338.23046875 C-650.48739722 321.00329519 -648.34094818 300.64790059 -640.3125 284.6875 C-628.35136072 264.12850161 -609.56140571 245.48288737 -591.51953125 230.17578125 C-589.21276469 228.17154145 -586.98197697 226.09908743 -584.74926758 224.01318359 C-579.31676079 218.93844068 -573.77759671 214.10509203 -567.9765625 209.44921875 C-565.42513271 207.35367506 -562.99173227 205.17286845 -560.5625 202.9375 C-556.10762438 198.87798577 -551.4489691 195.16232101 -546.69042969 191.47143555 C-542.82910593 188.47195842 -539.05135472 185.40110873 -535.3125 182.25 C-529.74862415 177.58541026 -524.05019144 173.12420723 -518.25976562 168.74658203 C-516.25105508 167.21819269 -514.25851458 165.67004555 -512.265625 164.12109375 C-485.48494786 143.48556603 -456.60747748 124.74481674 -426.87207031 108.66845703 C-424.16449237 107.19819033 -421.46911189 105.70681514 -418.7734375 104.21484375 C-347.18617923 64.83753402 -269.81097335 36.92478694 -100.375 5.3125 C-99.7031366 5.23364563 -99.03127319 5.15479126 -98.33905029 5.07354736 C-65.63264851 1.26349647 -32.90391113 -0.08282267 0 0 Z " fill="#FA9701" transform="translate(945.375,306.6875)"/>
<path d="M0 0 C0.6774099 -0.00044186 1.35481979 -0.00088371 2.05275726 -0.00133896 C26.96884234 -0.00981859 51.6899382 0.85628453 76.5 3.25 C77.83596222 3.37728485 77.83596222 3.37728485 79.19891357 3.50714111 C134.4372043 8.8104406 189.3146499 18.26367773 242.5 34.25 C243.23220764 34.4695636 243.96441528 34.6891272 244.71881104 34.91534424 C324.01536904 58.74787999 404.68694495 90.03304385 485.5 143.25 C486.12616211 143.69956055 486.75232422 144.14912109 487.39746094 144.61230469 C500.93594555 154.37137827 512.83198896 165.34494133 524.5 177.25 C520.42860117 179.28569942 514.88488168 176.40501425 510.70458984 175.03662109 C506.71990706 173.61484391 502.8691232 171.89434584 499 170.1875 C408.83847205 130.70574496 306.39382826 103.3589932 187.625 91.01171875 C186.93784409 90.94846909 186.25068817 90.88521942 185.54270935 90.8200531 C172.52298271 89.67441566 159.55009882 89.08512368 146.48046875 89.046875 C144.98390678 89.03984927 143.4873451 89.03276249 141.99078369 89.02561951 C137.22301813 89.00619356 132.45530113 89.00118367 127.6875 89 C126.46667158 88.99933722 126.46667158 88.99933722 125.22117996 88.99866104 C98.87725532 88.9911658 72.72036798 89.46343518 46.5 92.25 C45.67010559 92.33721313 44.84021118 92.42442627 43.98516846 92.51428223 C-32.40477925 100.61737654 -106.54280428 119.75491395 -269.5 195.25 C-270.93110107 196.08192871 -270.93110107 196.08192871 -272.39111328 196.93066406 C-289.82400784 207.07439139 -306.56932832 217.87224028 -323.03662109 229.51416016 C-325.32622432 231.12754756 -327.62388559 232.72843881 -329.92578125 234.32421875 C-338.01645374 239.94987388 -345.87601512 245.79839057 -353.62060547 251.8918457 C-359.08653793 256.18330466 -364.6394163 260.33734996 -370.25 264.4375 C-377.5009495 269.74293026 -384.60673305 275.19343202 -391.64111328 280.78125 C-396.0083347 284.23189408 -400.41283007 287.63537608 -404.81518555 291.04101562 C-408.3534721 293.78247929 -411.87341055 296.53823093 -415.3359375 299.375 C-427.42750832 309.23796697 -438.4409719 315.4093416 -454.5 314.25 C-468.96282302 311.81198126 -479.44969584 304.38807974 -489.5 294.25 C-490.50353516 293.29673828 -490.50353516 293.29673828 -491.52734375 292.32421875 C-502.76730246 280.82938569 -508.50790419 263.01157989 -508.56591797 247.27050781 C-507.73128043 221.68732151 -488.84592261 203.89117837 -471.31762695 187.30834961 C-468.06499711 184.26695443 -464.78819407 181.25285869 -461.5 178.25 C-460.58347656 177.40695312 -459.66695312 176.56390625 -458.72265625 175.6953125 C-449.48063263 167.27713215 -439.84811292 159.29753232 -430.15234375 151.41015625 C-428.43071624 150.00800601 -426.71423716 148.5995015 -425.00390625 147.18359375 C-405.9895873 131.46856302 -386.25687008 116.59334893 -365.5 103.25 C-364.76571777 102.7765918 -364.03143555 102.30318359 -363.27490234 101.81542969 C-289.19174099 54.32976546 -205.10406721 23.85260253 -118.5 9.25 C-117.47036133 9.0737207 -116.44072266 8.89744141 -115.37988281 8.71582031 C-100.33681861 6.18250176 -85.24063246 4.52079544 -70.0625 3.0625 C-69.18874725 2.97773407 -68.31499451 2.89296814 -67.4147644 2.80563354 C-44.9349756 0.64630683 -22.58168836 0.00678693 0 0 Z " fill="#FA9701" transform="translate(1045.5,590.75)"/>
<path d="M0 0 C0.98467255 -0.00067474 1.96934509 -0.00134949 2.9838562 -0.00204468 C86.43414914 0.08732489 167.7039224 17.02461597 302.5 73.25 C303.36093262 73.64058594 304.22186523 74.03117188 305.10888672 74.43359375 C331.4560392 86.42230002 358.43198442 100.34292034 380.5 119.25 C381.43070313 120.04148437 382.36140625 120.83296875 383.3203125 121.6484375 C388.48813034 126.16834982 393.13797803 130.94913224 397.5 136.25 C390.02395514 138.74201495 379.71665936 132.97611282 372.625 130.25 C371.60253174 129.86263672 370.58006348 129.47527344 369.52661133 129.07617188 C363.82429021 126.91332591 358.13241795 124.72364413 352.44140625 122.53125 C285.83785998 96.93498234 215.64483372 80.20830873 144.5625 73.5 C143.33917969 73.38438721 142.11585938 73.26877441 140.85546875 73.1496582 C122.33400009 71.51035886 103.83803886 71.04178544 85.25 71.0625 C84.15472992 71.06343658 83.05945984 71.06437317 81.93099976 71.06533813 C-6.40386902 71.22820954 -92.21994216 91.06798108 -215.5 151.25 C-216.21720215 151.66024414 -216.9344043 152.07048828 -217.67333984 152.49316406 C-232.02791015 160.72463843 -246.40480888 169.22224517 -259.66015625 179.1484375 C-262.53678776 181.27722395 -265.45986351 183.32390883 -268.39770508 185.36669922 C-277.58191398 191.76571158 -286.43078276 198.53152776 -295.22070312 205.45898438 C-298.27136174 207.85611715 -301.33883388 210.23123618 -304.40600586 212.60717773 C-310.77213279 217.53998941 -317.09935473 222.5151032 -323.375 227.5625 C-325.18133772 229.0063341 -326.98903437 230.44843375 -328.79785156 231.88916016 C-329.9126114 232.78039242 -331.0240822 233.67575798 -332.13183594 234.57568359 C-341.64794886 242.28803115 -350.075612 247.07921667 -362.58984375 246.5625 C-375.84186618 245.13946403 -386.12606956 237.34042576 -394.5 227.25 C-403.35165962 213.70193582 -406.18853583 199.98372896 -404.07421875 184.0390625 C-399.23450148 163.31438363 -374.32480393 142.94246275 -358.2109375 130.3984375 C-355.48148449 128.23532633 -352.87603984 125.97278238 -350.26611328 123.66870117 C-342.28182999 116.62344216 -333.96738444 110.1239748 -325.45458984 103.73291016 C-323.6970952 102.39953238 -321.96277653 101.04359321 -320.23828125 99.66796875 C-252.98862233 46.36766289 -166.0426725 17.41297441 0 0 Z " fill="#FA9701" transform="translate(1161.5,852.75)"/>
</svg>
